Note : It's CAM Rip... so print is bad... download only u needed camrip else wait for screener rip...

 
http://desibbrg.org/images/66952052392581364616.gif
]http://desibbrg.org/images/38025920556082526917.jpg


Media Info - 
General
Complete name                    : Mere Dost Picture Abhi Baki Hai [2012] SCAM Rip Exclusive By Team [IcTv].mpg
Format                           : MPEG-PS
File size                        : 723 MiB
Duration                         : 1h 55mn
Overall bit rate                 : 876 Kbps

Video
ID                               : 224 (0xE0)
Format                           : MPEG Video
Format version                   : Version 2
Format profile                   : Main@Main
Format settings, BVOP            : Yes
Format settings, Matrix          : Default
Duration                         : 1h 55mn
Bit rate mode                    : Variable
Bit rate                         : 731 Kbps
Nominal bit rate                 : 9 672 Kbps
Width                            : 352 pixels
Height                           : 288 pixels
Display aspect ratio             : 4:3
Frame rate                       : 24.000 fps
Standard                         : PAL
Color space                      : YUV
Chroma subsampling               : 4:2:0
Bit depth                        : 8 bits
Scan type                        : Progressive
Scan order                       : 2:2:2:2:2:2:2:2:2:2:2:3 Pulldown
Compression mode                 : Lossy
Bits/(Pixel*Frame)               : 0.300
Stream size                      : 603 MiB (83%)

Audio
ID                               : 192 (0xC0)
Format                           : MPEG Audio
Format version                   : Version 1
Format profile                   : Layer 2
Duration                         : 1h 55mn
Bit rate mode                    : Constant
Bit rate                         : 128 Kbps
Channel(s)                       : 2 channels
Sampling rate                    : 48.0 KHz
Compression mode                 : Lossy
Stream size                      : 106 MiB (15%)

Ripper : Master Mind

Seeding 24x7... Extreme Seeding...


Enjoy!
